<svg id="Layer_1" data-name="Layer 1" xmlns="http://www.w3.org/2000/svg" xmlns:xlink="http://www.w3.org/1999/xlink" viewBox="0 0 1000 1000"><defs><style>.cls-1{fill:none;}.cls-2{fill:#f98638;}.cls-3{fill:#353519;}.cls-4{fill:#bab653;}.cls-5{fill:#f4ece5;}.cls-6{fill:#ffaa9f;}.cls-7{fill:#e9cf81;}.cls-8{fill:#666538;}.cls-9{fill:#deb8fc;}.cls-10{fill:#ad4d4d;}.cls-11{clip-path:url(#clip-path);}.cls-12{fill:#2b3d0a;}.cls-13{fill:#00aa61;}.cls-14{fill:#007362;}</style><clipPath id="clip-path"><path class="cls-1" d="M394.26,387.12a92.11,92.11,0,0,1,10-16.82,84.86,84.86,0,0,1,20.85-19.73,84,84,0,0,1,7.43-4.39,81.76,81.76,0,0,1,12.49-5.31c15.23-5,30.09-4.27,42.26-1.8A112,112,0,0,1,513.48,348s11.9,4.51,24.59,16.65,26.18,31.93,29.35,62.47l6.18,57.14,6.18,57.14L552,544.17,524.25,547l-5.38-40.49L513.48,466l-35.61.15-35.61.14a17.8,17.8,0,0,1-17.84-16.83h0a106.76,106.76,0,0,1-15.09,14.21c-7.93,6-18.19,11.32-29,10.53a34.94,34.94,0,0,1-7.78-1.55,27.68,27.68,0,0,1-3.21-1.21,29.59,29.59,0,0,1-8.8-6.37A36.85,36.85,0,0,1,355,457.6a40.69,40.69,0,0,1-2.22-4.67,44.82,44.82,0,0,1-1.63-4.91l-11.52-42.54L328.12,363l27-8.71,27-8.71,6.05,20.8Z"/></clipPath></defs><path class="cls-2" d="M415.87,783.92,420,803.35l4.14,19.43a12.65,12.65,0,0,1-3.37,11.49L409.13,846,397.5,857.8a1.74,1.74,0,0,0-.3,2.11,1.76,1.76,0,0,0,1.94.89l48.58-10.33,48.59-10.33a6.84,6.84,0,0,0,5.27-8.11l-6.75-31.73-6.75-31.74L452,776.24Z"/><path class="cls-3" d="M195.25,793.55,194,806l-1.3,12.4a12.46,12.46,0,0,1-6.76,9.83l-7.2,3.65-7.2,3.65a3.21,3.21,0,0,0,1.28,6.06l32.71,1.75,32.71,1.75a10.71,10.71,0,0,0,11.21-9.41l2.2-18.34,2.2-18.33-29.28-2.71Z"/><path class="cls-3" d="M257.77,800.75l1.88,12.33,1.89,12.32a12.56,12.56,0,0,1-.59,6.13,12.4,12.4,0,0,1-3.46,5.09l-6,5.36-6,5.36a3.2,3.2,0,0,0,2.77,5.53l32.08-6.59,32.09-6.59a10.72,10.72,0,0,0,8.46-12l-2.52-18.29-2.51-18.3-29,4.8Z"/><path class="cls-4" d="M851.6,656.61H148.17V503.27a19.05,19.05,0,0,1,19.05-19H832.55a19.05,19.05,0,0,1,19.05,19V656.61Z"/><polygon class="cls-5" points="203.39 652.17 190.89 652.17 178.39 652.17 178.39 568.2 178.39 484.22 190.89 484.22 203.39 484.22 203.39 568.2 203.39 652.17"/><path class="cls-4" d="M846.37,768.92h-693a13.08,13.08,0,0,1-13.07-13.08V666.06A13.08,13.08,0,0,1,153.4,653h693a13.08,13.08,0,0,1,13.07,13.08v89.78a13.08,13.08,0,0,1-13.07,13.08Z"/><path class="cls-3" d="M689.24,448.45h-366A13.28,13.28,0,0,1,310,435.18V152.43a13.28,13.28,0,0,1,13.28-13.27h366a13.28,13.28,0,0,1,13.28,13.27V435.18a13.28,13.28,0,0,1-13.28,13.27Z"/><path class="cls-3" d="M851.28,448.45H737.7a8.4,8.4,0,0,1-8.39-8.39V147.55a8.4,8.4,0,0,1,8.39-8.39H851.28a8.4,8.4,0,0,1,8.39,8.39V440.06a8.4,8.4,0,0,1-8.39,8.39Z"/><path class="cls-6" d="M328.39,268.79l-8.78,6-8.79,6a5.62,5.62,0,0,0-2,2.44,3.41,3.41,0,0,0-.09,2.54,3.55,3.55,0,0,0,2.24,1.88,5.33,5.33,0,0,0,3.65-.16c.78-.32,1.23-.48,2-.81s1.86-.83,3.93-1.82c2.26-1.08,3.65-1.66,4.95-2.23s2.52-1.13,4.41-2.16l.85-.47.62-.35c-.3-.84-.59-1.71-.88-2.62s-.56-1.84-.83-2.81-.5-1.88-.72-2.79S328.57,269.65,328.39,268.79Z"/><path class="cls-3" d="M276.9,448.45H163.32a8.4,8.4,0,0,1-8.39-8.39V147.55a8.4,8.4,0,0,1,8.39-8.39H276.9a8.4,8.4,0,0,1,8.39,8.39V440.06a8.4,8.4,0,0,1-8.39,8.39Z"/><path class="cls-7" d="M284.63,307.48a2,2,0,0,0,.33-.09l.33-.09v-31a15.77,15.77,0,0,0-8.65,1,17.42,17.42,0,0,0-7.23,5.55,18.83,18.83,0,0,0,1.85-11.14,17,17,0,0,0-4.87-9.77,17.61,17.61,0,0,0-10-4.78,15.72,15.72,0,0,0-10.47,2.16,16.36,16.36,0,0,0-7,11.33,20.64,20.64,0,0,0,3.43,14.8.17.17,0,0,1,0,.22.18.18,0,0,1-.23,0A14.62,14.62,0,0,0,231.23,283a12.18,12.18,0,0,0-10.11,16.15,14.56,14.56,0,0,0,7.76,9.06s0,0,0,0h0a18.26,18.26,0,0,0-13.71,2.61,14.77,14.77,0,0,0-6.77,10,14.31,14.31,0,0,0,2.77,10,18,18,0,0,0,9.52,6.78l-3.78.1-3.78.1a18.9,18.9,0,0,0-18.38,19.38h0a18.89,18.89,0,0,0,19.38,18.37l15.57-.41,15.57-.41,1.1,36.82,1.11,36.82h28.35l-1.11-37.2-1.12-37.2,5.85-.15,5.85-.16v-66.4l-.33.07Z"/><path class="cls-4" d="M346.6,224.28a1.21,1.21,0,0,1-.88-.37,1.24,1.24,0,0,1-.37-.88V139.34a1.24,1.24,0,0,1,.37-.88,1.23,1.23,0,0,1,1.76,0,1.24,1.24,0,0,1,.37.88V223a1.24,1.24,0,0,1-.37.88A1.21,1.21,0,0,1,346.6,224.28Z"/><path class="cls-8" d="M437.3,436.49c-4.37-3.25-9.25-5.82-14-8.57s-9.3-5.67-13.06-9.61a38.35,38.35,0,0,1-7.37-11.37,52.49,52.49,0,0,1-3.63-13.19,79.68,79.68,0,0,1,.89-26.18A164.51,164.51,0,0,1,407.47,342c3-8.29,6.36-16.49,9.33-24.8a153.91,153.91,0,0,0,7.11-25.39L412.78,289l-11.13-2.85-.11,0-.12,0c-2.85,11.28-6.79,22.23-10.78,33.17s-8.06,21.86-11.16,33.08A133.71,133.71,0,0,0,374.23,387c-.06,11.65,1.89,23.12,6.85,33.65a64.58,64.58,0,0,0,9,14,67.74,67.74,0,0,0,12.24,11.38c.59.42,1.2.83,1.83,1.22s1.28.77,1.94,1.14h42.75a53.67,53.67,0,0,0-5.3-6.44A49.75,49.75,0,0,0,437.3,436.49Z"/><path class="cls-3" d="M396.11,303.29l6.73,16.56,6.73,16.56s2.62-6.71,5.31-13.92,5.46-14.9,5.76-16.89l-5.14-9.46-5.14-9.46L403.24,295Z"/><path class="cls-9" d="M375.34,230.18A24.57,24.57,0,0,0,362,233.34a22.43,22.43,0,0,0-9.14,9.7,24.26,24.26,0,0,0-2.06,14,19,19,0,0,0,7.16,12.46,19.3,19.3,0,0,0,10,3.77,23.15,23.15,0,0,0,11.15-1.86A22.1,22.1,0,0,0,368,282.17a21.26,21.26,0,0,0-1.25,15.07A21.6,21.6,0,0,0,376,309.3a20.28,20.28,0,0,0,14.48,3,20,20,0,0,0,11.6-7,25.32,25.32,0,0,0,3.89-6.2,28.54,28.54,0,0,0,3.54,7.52,23.66,23.66,0,0,0,12,9.65,25,25,0,0,0,15.14.29,21.51,21.51,0,0,0,12.22-8.92,21,21,0,0,0,3.2-10.53,25.71,25.71,0,0,0-.6-6.65,32.67,32.67,0,0,0,13.43,9.49,24.52,24.52,0,0,0,15,.78,25.65,25.65,0,0,0,6.76-2.94,19.35,19.35,0,0,0,8.06-9.64,19.85,19.85,0,0,0,0-13.34,23.9,23.9,0,0,0-3.18-6.31,23.06,23.06,0,0,0,16.3-.91,20.67,20.67,0,0,0,10.84-10.92,19.82,19.82,0,0,0,.06-14.55,24.24,24.24,0,0,0-8.42-11.15,22.06,22.06,0,0,0-9-3.73,25.5,25.5,0,0,0-6.18-.34,28.73,28.73,0,0,0,5.38-5,21,21,0,0,0,4.68-10.12c1-6.45-1.41-13.19-5.75-18.43s-10.64-9-17.47-9.44a23.68,23.68,0,0,0-14.44,4.06,31.43,31.43,0,0,0-6.5,5.63,33.59,33.59,0,0,0-.45-8.56,23.61,23.61,0,0,0-5.52-11.6c-5.38-5.92-14-8.52-22.5-8s-16.81,4.25-21.57,11a24.92,24.92,0,0,0-4.35,13.88,35.17,35.17,0,0,0,1,9.13,28.58,28.58,0,0,0-11.55-9,23.77,23.77,0,0,0-13.78-1.54A26,26,0,0,0,366.78,199c-3.7,5.08-5.49,11.31-4.06,17.15a19.58,19.58,0,0,0,6.45,10A27.58,27.58,0,0,0,375.34,230.18Z"/><path class="cls-2" d="M417.74,229a26.11,26.11,0,0,0-11.48-1,13.57,13.57,0,0,0-9.54,6.07,12.67,12.67,0,0,0,.61,14.61,15.34,15.34,0,0,0,13.48,6.47c-.27,0-.71.63-1.11,1.28s-.75,1.35-.87,1.55a13.07,13.07,0,0,0-1.36,10.61,12.47,12.47,0,0,0,7.27,7.8c3.46,1.44,7.47.84,11-.87A18.84,18.84,0,0,0,434,267.9a39.08,39.08,0,0,0,2.09-5.13c.6-1.71,1-3.09,1-3.09,3.31,3.87,5.32,6,6.5,7.22a11.77,11.77,0,0,0,1.55,1.41,18.16,18.16,0,0,0,4.64,2,15.09,15.09,0,0,0,9.52-.26,14.09,14.09,0,0,0,2.28-1.11,14.3,14.3,0,0,0,2.13-1.58,15.42,15.42,0,0,0,4.9-9.11,11.93,11.93,0,0,0-2.62-9.83,26,26,0,0,0-3.33-2.93c-1.13-.86-2.06-1.48-2.06-1.48l1.33-.65,1.18-.59a14.57,14.57,0,0,0,7.18-8.71,14.36,14.36,0,0,0-1.05-11.33,13,13,0,0,0-11.62-6.6,16.63,16.63,0,0,0-12.5,5.6,15.17,15.17,0,0,0,0-2.38,14.32,14.32,0,0,0-.51-3.07,15.42,15.42,0,0,0-4.75-7.37,17.49,17.49,0,0,0-3.89-2.6,18,18,0,0,0-8.87-1.59,13.66,13.66,0,0,0-8.7,3.85,14,14,0,0,0-3.75,7.41,16.84,16.84,0,0,0-.24,4.33,14.1,14.1,0,0,0,.5,2.51,15.29,15.29,0,0,0,.7,1.87c.13.36.46,1.37.85,2.32S417.36,228.84,417.74,229Z"/><polygon class="cls-5" points="639.53 652.17 627.03 652.17 614.53 652.17 614.53 568.2 614.53 484.22 627.03 484.22 639.53 484.22 639.53 568.2 639.53 652.17"/><path class="cls-5" d="M379.4,260.8c-2.33-11.55-7.32-21.53-13.52-28.32s-13.59-10.41-20.73-9.23-12.64,6.92-15.79,15.26-3.94,19.27-1.61,30.82,7.32,21.53,13.52,28.33,13.59,10.41,20.72,9.23,12.65-6.93,15.8-15.27S381.72,272.35,379.4,260.8Zm-18.78,36.11c-4.39.73-9.07-2.12-13.08-7.31s-7.38-12.73-9.12-21.38-1.54-16.77.2-22.91,5-10.3,9.39-11,9.07,2.12,13.09,7.31,7.37,12.73,9.11,21.37,1.54,16.77-.19,22.91S365,296.19,360.62,296.91Z"/><path class="cls-10" d="M274,457.44A27.5,27.5,0,1,1,265.89,438,27.41,27.41,0,0,1,274,457.44Z"/><path class="cls-10" d="M248.74,497.91a36.43,36.43,0,1,1-10.67-25.76A36.36,36.36,0,0,1,248.74,497.91Z"/><polygon class="cls-5" points="387.11 652.17 374.61 652.17 362.11 652.17 362.11 568.2 362.11 484.22 374.61 484.22 387.11 484.22 387.11 568.2 387.11 652.17"/><path class="cls-8" d="M851.6,654.23H148.81a1.27,1.27,0,0,1-.88-.36,1.25,1.25,0,0,1-.37-.89,1.22,1.22,0,0,1,.37-.88,1.24,1.24,0,0,1,.88-.37H851.6a1.26,1.26,0,0,1,1.25,1.25,1.25,1.25,0,0,1-1.25,1.25Z"/><polygon class="cls-8" points="457.59 789.12 494.5 789.12 531.41 789.12 531.41 627.55 531.41 465.98 489.01 466.11 446.61 466.24 452.1 627.68 457.59 789.12"/><path class="cls-8" d="M415.87,783.92l-15-56.81-15-56.81q-2-7.53-4.11-15t-4.33-14.95a104.41,104.41,0,0,1-4.23-25.52c-.33-10.3,1.16-21.68,6.65-32l28.48-58.71,28.49-58.71,41.05.29,41.06.29q-14.55,39.67-29.11,79.33t-29.11,79.34l13.68,71.94,13.68,71.94L452,776.24Z"/><path class="cls-4" d="M668.5,277.75l-4.6.13-4.61.12a.11.11,0,0,1-.11-.09.11.11,0,0,1,.08-.12,25.53,25.53,0,0,0,9.16-5.46,16.51,16.51,0,0,0,4.76-7.88,16,16,0,0,0-.47-8.76,19.37,19.37,0,0,0-2.1-4.49,20.12,20.12,0,0,0-10.79-8.07,27.72,27.72,0,0,0-15.23-.43,21.73,21.73,0,0,0,12.11-7.57,19.41,19.41,0,0,0,.65-23.85,18.66,18.66,0,0,0-21.45-6.89,21.71,21.71,0,0,0-10.36,7.43,23.54,23.54,0,0,0,2.32-13.95,21.31,21.31,0,0,0-6.1-12.23,21.9,21.9,0,0,0-12.51-6,19.63,19.63,0,0,0-13.11,2.7,20.41,20.41,0,0,0-8.71,14.18,25.79,25.79,0,0,0,4.29,18.53.21.21,0,0,1,0,.28.21.21,0,0,1-.28,0,18.25,18.25,0,0,0-13.67-3.3,15.24,15.24,0,0,0-12.66,20.22,18.25,18.25,0,0,0,9.71,11.34s0,0,0,0h0a22.83,22.83,0,0,0-17.16,3.25c-4.63,3.06-7.82,7.66-8.48,12.53A17.86,17.86,0,0,0,552.61,272a22.56,22.56,0,0,0,11.92,8.49l-4.74.13-4.74.12a23.65,23.65,0,0,0-23,24.26h0a23.63,23.63,0,0,0,24.26,23l19.49-.52,19.5-.52,1.82,60.73L599,448.45h35.5l-1.84-61.2-1.84-61.19,19.5-.52,19.49-.52a23.65,23.65,0,0,0,23-24.26h0a23.65,23.65,0,0,0-24.27-23Z"/><path class="cls-5" d="M522.49,448.45A56.43,56.43,0,0,1,527.23,423c5.88-13.29,18.78-27.68,46.87-32.12a72.4,72.4,0,0,1,29,1.27,65.91,65.91,0,0,1,25.82,13,62.08,62.08,0,0,1,11.07,12,54.92,54.92,0,0,1,4.4,7.31,58.38,58.38,0,0,1,4.79,13.75,59.67,59.67,0,0,1,1.25,10.22h-128Z"/><polygon class="cls-5" points="781.25 652.17 768.75 652.17 756.25 652.17 756.25 568.2 756.25 484.22 768.75 484.22 781.25 484.22 781.25 568.2 781.25 652.17"/><path class="cls-7" d="M394.26,387.12a92.11,92.11,0,0,1,10-16.82,84.86,84.86,0,0,1,20.85-19.73,84,84,0,0,1,7.43-4.39,81.76,81.76,0,0,1,12.49-5.31c15.23-5,30.09-4.27,42.26-1.8A112,112,0,0,1,513.48,348s11.9,4.51,24.59,16.65,26.18,31.93,29.35,62.47l6.18,57.14,6.18,57.14L552,544.17,524.25,547l-5.38-40.49L513.48,466l-35.61.15-35.61.14a17.8,17.8,0,0,1-17.84-16.83h0a106.76,106.76,0,0,1-15.09,14.21c-7.93,6-18.19,11.32-29,10.53a34.94,34.94,0,0,1-7.78-1.55,27.68,27.68,0,0,1-3.21-1.21,29.59,29.59,0,0,1-8.8-6.37A36.85,36.85,0,0,1,355,457.6a40.69,40.69,0,0,1-2.22-4.67,44.82,44.82,0,0,1-1.63-4.91l-11.52-42.54L328.12,363l27-8.71,27-8.71,6.05,20.8Z"/><g class="cls-11"><path class="cls-5" d="M596.68,475.67a15.9,15.9,0,0,0,.12-2.19,14.13,14.13,0,0,0-.21-2.23,14.89,14.89,0,0,0-28.67-2.61,15.29,15.29,0,0,0-4.64-1.65,14.89,14.89,0,0,0-12.62,25.68,14.89,14.89,0,0,0,20.18,21.9,14.89,14.89,0,0,0,28.46-8.16c0-.19-.07-.39-.12-.58s-.09-.39-.14-.58h.06a14.89,14.89,0,0,0-2.42-29.57Z"/><path class="cls-5" d="M531.52,396.45a15.67,15.67,0,0,0,.12-2.18,14.25,14.25,0,0,0-.21-2.24,14.89,14.89,0,0,0-17.2-12.17,14.77,14.77,0,0,0-7.12,3.32,15,15,0,0,0-4.35,6.25,15,15,0,0,0-4.64-1.65A14.9,14.9,0,0,0,480.84,405a14.87,14.87,0,0,0,4.66,8.48,14.83,14.83,0,0,0-4.57,13.44,14.88,14.88,0,0,0,21.3,10.84,15,15,0,0,0,3.44-2.37,15,15,0,0,0,6.49,7.34,14.89,14.89,0,0,0,22-15.5c0-.2-.07-.39-.12-.59s-.09-.38-.14-.57h.06a14.9,14.9,0,0,0-2.42-29.58Z"/><path class="cls-5" d="M446.57,350.88a14,14,0,0,0,1.19-1.83,15.76,15.76,0,0,0,.94-2,14.89,14.89,0,0,0-23.53-16.59,14.65,14.65,0,0,0-3.19-3.75,14.5,14.5,0,0,0-4.41-2.56,14.89,14.89,0,0,0-19.14,8.8,14.65,14.65,0,0,0-.92,4.91,15,15,0,0,0,.7,4.77,14.9,14.9,0,0,0-1.87,28.5,15.15,15.15,0,0,0,4.23.89,14.82,14.82,0,0,0,4.16-.33,14.92,14.92,0,0,0,1.95,9.6,14.89,14.89,0,0,0,26.78-2.43c.07-.19.14-.38.19-.57s.12-.38.17-.57h.06a14.89,14.89,0,0,0,12.69-26.82Z"/><path class="cls-5" d="M398.83,452.93a15.17,15.17,0,0,0,1.45-1.64,17.31,17.31,0,0,0,1.22-1.88,14.89,14.89,0,0,0-20.88-19.82,14.9,14.9,0,0,0-26.83-1.4,14.81,14.81,0,0,0-1.61,9.54,15.19,15.19,0,0,0-6.84,2.28,14.91,14.91,0,0,0,4.92,27.15,15.05,15.05,0,0,0,4.17.27,14.9,14.9,0,0,0,27.4,11.25l.27-.53.24-.54h0l0,0a14.9,14.9,0,0,0,16.44-24.71Z"/><path class="cls-5" d="M353,369.68a15.17,15.17,0,0,0,1.45-1.64,16.52,16.52,0,0,0,1.22-1.89,14.9,14.9,0,0,0-13.59-22,15,15,0,0,0-7.3,2.2,14.68,14.68,0,0,0-2.61-4.17,15.05,15.05,0,0,0-4-3.17A14.91,14.91,0,0,0,308,344.94a14.63,14.63,0,0,0-1.62,4.72,15,15,0,0,0,0,4.82,14.89,14.89,0,1,0,2.25,29.7A14.9,14.9,0,0,0,336,395.43l.27-.54.24-.54,0,0,0,0A14.9,14.9,0,0,0,353,369.68Z"/><path class="cls-5" d="M473.09,477.12a15.17,15.17,0,0,0,1.45-1.64,17.31,17.31,0,0,0,1.22-1.88,14.9,14.9,0,0,0-13.59-22,15.12,15.12,0,0,0-7.3,2.21,14.89,14.89,0,0,0-28.44,3.32,15,15,0,0,0,0,4.82,15.19,15.19,0,0,0-6.84,2.28,14.91,14.91,0,0,0,4.92,27.15,15.05,15.05,0,0,0,4.17.27,14.89,14.89,0,0,0,27.39,11.25c.1-.18.19-.36.27-.53s.17-.36.25-.54h0l0,0a14.9,14.9,0,0,0,16.44-24.71Z"/></g><path class="cls-12" d="M513.48,467.22a1.26,1.26,0,0,1-.83-.31,1.24,1.24,0,0,1-.41-.79l-2.77-23.34-2.76-23.35a1.25,1.25,0,1,1,2.48-.29L512,442.48l2.76,23.35a1.26,1.26,0,0,1-1.09,1.39h-.15Z"/><path class="cls-12" d="M424.42,450.69a1.27,1.27,0,0,1-.88-.36,1.31,1.31,0,0,1-.37-.88l-.24-15.69-.23-15.7a1.25,1.25,0,0,1,1.23-1.26,1.14,1.14,0,0,1,.9.34,1.29,1.29,0,0,1,.37.89l.23,15.69.24,15.7a1.25,1.25,0,0,1-.35.89,1.29,1.29,0,0,1-.88.38h0Z"/><path class="cls-2" d="M251.31,341.36a9.7,9.7,0,1,1-2.84-6.85A9.66,9.66,0,0,1,251.31,341.36Z"/><path class="cls-6" d="M342.1,316a3.33,3.33,0,0,0,1.08-.28,4.76,4.76,0,0,0,.57-.32c1.09-.72,1.76-2,1.95-4.54a59.41,59.41,0,0,0-.85-11.81v-.11q-.7-5-1.73-9.95t-2.32-9.82c-.27-1-.53-2.06-.79-3.1s-.52-2.1-.77-3.17c-.2-.86-.39-1.72-.58-2.57s-.37-1.69-.55-2.52a5.82,5.82,0,0,1,.35-3.46,5.13,5.13,0,0,1,2.32-2.53l.24-.12.25-.11a5.92,5.92,0,0,1,3.45-.28,6.33,6.33,0,0,1,3.12,1.72,6,6,0,0,1,2.64-1.77,5.86,5.86,0,0,1,5.9,1.35,6,6,0,0,1,1.6,2.69,6.3,6.3,0,0,1,1.64-.31,6.22,6.22,0,0,1,6.15,4.05c1.05,2.73,2.11,5.46,3.16,8.2l3.17,8.19a89.81,89.81,0,0,1,5.5,21.89l2.3,19.12,2.29,19.13-24.33,7.84-24.33,7.84-6.74-25.44L320,310.32A62.11,62.11,0,0,1,318,300.8a16.84,16.84,0,0,1,.05-5.9,7.73,7.73,0,0,1,.79-2,4.17,4.17,0,0,1,1.45-1.53c2.39-1.46,4.36-.55,5.91,1.13a22.64,22.64,0,0,1,3.46,5.81c.87,1.93,2.26,5.05,3.85,8.12a34.47,34.47,0,0,0,5.09,7.77,6.34,6.34,0,0,0,2.24,1.54A3.23,3.23,0,0,0,342.1,316Z"/><path class="cls-10" d="M355.1,289.16a1.25,1.25,0,0,1-1.2-.9l-3.64-12.46-3.64-12.46a1.29,1.29,0,0,1,.11-.95,1.26,1.26,0,0,1,1.7-.5,1.29,1.29,0,0,1,.6.75l3.63,12.46,3.64,12.46a1.26,1.26,0,0,1-.85,1.55l-.18,0Z"/><path class="cls-10" d="M364.59,287.71a1.26,1.26,0,0,1-1.19-.88l-3.32-10.6-3.31-10.6a1.2,1.2,0,0,1,.08-.95,1.26,1.26,0,0,1,.74-.61,1.21,1.21,0,0,1,1,.08,1.26,1.26,0,0,1,.61.74l3.32,10.59,3.32,10.6a1.27,1.27,0,0,1-.82,1.57l-.19,0Z"/><path class="cls-2" d="M457.59,789.12V831a8.74,8.74,0,0,1-3.94,7.29L439,847.91l-14.7,9.66a1.78,1.78,0,0,0,1,3.27h99.34a6.83,6.83,0,0,0,6.84-6.83V789.12H457.59Z"/><path class="cls-8" d="M163.32,448.32h-.1a1.29,1.29,0,0,1-.85-.44,1.22,1.22,0,0,1-.29-.91l6.37-77.75,6.37-77.75a1.24,1.24,0,0,1,.44-.85,1.21,1.21,0,0,1,.91-.29,1.24,1.24,0,0,1,.85.44,1.21,1.21,0,0,1,.29.91l-6.37,77.74-6.37,77.75a1.26,1.26,0,0,1-.4.82A1.24,1.24,0,0,1,163.32,448.32Z"/><path class="cls-8" d="M163.32,448.32l-.24,0-.23-.07a1.29,1.29,0,0,1-.68-.68,1.28,1.28,0,0,1,0-1l15.05-36.36,15-36.36a1.29,1.29,0,0,1,.68-.68,1.28,1.28,0,0,1,1,0,1.24,1.24,0,0,1,.67.68,1.19,1.19,0,0,1,0,1l-15,36.36-15.05,36.36a1.32,1.32,0,0,1-.47.57A1.27,1.27,0,0,1,163.32,448.32Z"/><path class="cls-7" d="M702.52,409.44c-2.26-3.64-4.74-7.42-7.48-11.31s-5.72-7.88-9-11.94c-4.24-5.28-8.49-10.11-12.66-14.51s-8.24-8.38-12.14-11.94a27.66,27.66,0,0,0-10-5.95,12.33,12.33,0,0,0-9.09.27,9.76,9.76,0,0,0-1.54.93,8.08,8.08,0,0,0-2,2.08c-1.42,2.19-1.7,5.1-.93,8.27a24.73,24.73,0,0,0,5.33,9.88c2.88,3.92,6.14,8.07,9.83,12.35s7.81,8.67,12.39,13.09a197.94,197.94,0,0,0,37.24,28.24V409.44Z"/><path class="cls-7" d="M702.52,424.75c-4.47-1.22-8.92-2.45-13.37-3.72s-8.89-2.59-13.3-4c-10-3.12-16.17-3.69-20.07-3.21s-5.52,2-6.4,3.16a7,7,0,0,0-1.38,3.52,7.14,7.14,0,0,0,2.4,6.42c1.77,1.8,4.86,3.88,10.23,6.05a85.57,85.57,0,0,0,21.29,5.29,133.79,133.79,0,0,0,20,.92c.11-.32.22-.67.32-1s.18-.78.24-1.22l.06-.51,0-.48c0-1.87,0-3.73,0-5.6S702.52,426.62,702.52,424.75Z"/><path class="cls-7" d="M702.52,374.85c-.58-1.22-6.71-14.19-13.39-27.82s-13.9-27.91-16.65-31.76a13.92,13.92,0,0,0-1.94-2.19c-.62-.57-1.17-1-1.54-1.27a14.84,14.84,0,0,0-5.67-2.66,9.35,9.35,0,0,0-5.44.35,8.66,8.66,0,0,0-2.83,1.83,11.05,11.05,0,0,0-1.42,1.7,11.78,11.78,0,0,0-2,5.41,18.2,18.2,0,0,0,.23,5.4,22.67,22.67,0,0,0,1.26,4.36,27,27,0,0,0,2,4.06l23.68,38.59,23.68,38.59V374.85Z"/><path class="cls-7" d="M747.22,221.3c1.24-3.91,3.38-9.08,6.52-12.67s7.3-5.59,12.57-3.15c6.47,3,7.53,9.85,6.51,17.13s-4.1,15-5.92,19.61q-3.67,9.36-7.38,18.71t-7.45,18.68q-2.62,6.58-5.28,13.17t-5.3,13.16l-2.94,7.28-2.95,7.29c-.54,1.33-1.08,2.66-1.61,4l-1.62,4c-.41,1-1.17,2.35-1.84,3.72a10.09,10.09,0,0,0-1.22,3.83V283.47q2.1-8.39,4.48-17.07t5.1-17.64c1-3.45,2.08-7,3.15-10.62s2.16-7.2,3.3-10.72c.31-1,.62-2,.93-3S746.89,222.35,747.22,221.3Z"/><path class="cls-13" d="M228.48,339.48H217.1a1.25,1.25,0,0,1-1.25-1.25,1.24,1.24,0,0,1,.37-.88,1.22,1.22,0,0,1,.88-.37h11.38a1.25,1.25,0,0,1,.89.37,1.25,1.25,0,0,1-.89,2.13Z"/><path class="cls-9" d="M235.62,348.45a29.05,29.05,0,1,1-8.51-20.54A29,29,0,0,1,235.62,348.45Z"/><path class="cls-7" d="M729.31,336.05c13.91-24,26.22-44.73,35.86-60.47s16.57-26.53,19.73-30.69a26.07,26.07,0,0,1,9.27-7.59c3.74-1.72,7.8-2.11,11.28.39s4.32,6.46,4,10.65a36,36,0,0,1-3.15,11.72c-3.81,8.55-10.38,18.35-16.37,26.47s-11.42,14.53-12.93,16.31L753.18,331q-11.94,14.07-23.87,28.16V336.05Z"/><path class="cls-7" d="M729.31,359.17s1.54-8,9.85-20.6,23.37-29.66,50.43-47.78a29.12,29.12,0,0,1,4.38-2.27,25.36,25.36,0,0,1,10.15-2.16,10.9,10.9,0,0,1,2.14.23,7.43,7.43,0,0,1,2.79,1.23,7.63,7.63,0,0,1,1.56,1.55,5.89,5.89,0,0,1,.77,1.3,8.13,8.13,0,0,1-.4,6.17,21.49,21.49,0,0,1-2.78,4.66l-39.44,44.05-39.45,44h0V359.17Z"/><path class="cls-5" d="M298,459.85a62.5,62.5,0,0,1,11.11,2.32,59.63,59.63,0,0,1,14.21,6.49c1.61,1,3.12,2.07,4.55,3.17s2.76,2.22,4,3.37a58.2,58.2,0,0,1,12,15.62,62.11,62.11,0,0,1,6.27,18.71l6.48,39,6.48,39a42.24,42.24,0,0,1,.58,10.48,33.66,33.66,0,0,1-4.12,14.14c-4.13,7.38-11.16,13-19.77,16.16A52.94,52.94,0,0,1,310.42,630l-41-11.26-41-11.27,23.27-75,23.26-75,11.51,1.21Z"/><path class="cls-7" d="M729.31,384.47q5.7-3.48,12.11-7.27t13.52-7.83a130.53,130.53,0,0,1,12.79-6.31c6.22-2.6,13.1-4.69,16.81-3.21a10.15,10.15,0,0,1,3.62,2.4,6.86,6.86,0,0,1,1.07,1.39,7,7,0,0,1,.73,2.25,7.91,7.91,0,0,1,.09,1.46,10,10,0,0,1-2.47,6.19,24.31,24.31,0,0,1-3.93,3.76c-3.1,2.49-9.7,5.93-19,9.9s-21.36,8.47-35.33,13.09V384.47Z"/><path class="cls-2" d="M313.28,620.85H280.49A13.84,13.84,0,0,1,266.65,607V541.42h60.47V607a13.84,13.84,0,0,1-13.84,13.84Z"/><path class="cls-7" d="M239.63,600.58a34.68,34.68,0,0,0-17.67,5.6c-9,5.77-18.46,17.49-20,41.28l-10.69,72.19-10.68,72.2a5.64,5.64,0,0,0,.4,3,5.52,5.52,0,0,0,2,2.36,45.48,45.48,0,0,0,18.37,7.34c8.3,1.25,18.35,0,28.83-7.36a44.09,44.09,0,0,0,15.29,7.27c9.3,2.42,21.9,2.42,35.11-7.27a57.5,57.5,0,0,0,15.95,6.33c9.54,2.28,22.23,2.77,34.78-4.35a5.61,5.61,0,0,0,2.23-2.3,5.48,5.48,0,0,0,.6-3.15l-6.51-62.54L321,668.68a55.47,55.47,0,0,0,5.63-4.55,54.34,54.34,0,0,0,6.25-6.82s.49-.64,1.18-1.6,1.58-2.27,2.38-3.6c2.16-3.61,3.7-9.69,4.32-17.56a131.87,131.87,0,0,0-1.23-28.24l-50-2.87Z"/><path class="cls-8" d="M199.38,345.72a7.94,7.94,0,0,1-3.7-.94,8.48,8.48,0,0,1-3-2.62,8.15,8.15,0,0,1-3.86,1.92,7.83,7.83,0,0,1-8.09-3.35,8.13,8.13,0,0,1-1.37-4.7,1.25,1.25,0,0,1,1.25-1.23h0a1.26,1.26,0,0,1,.88.39,1.23,1.23,0,0,1,.35.89,5.61,5.61,0,0,0,.94,3.25,5.44,5.44,0,0,0,2.61,2.08,5.53,5.53,0,0,0,3.22.16,5.64,5.64,0,0,0,2.8-1.69,1.93,1.93,0,0,1,.71-.49,1.92,1.92,0,0,1,1.68.19,1.91,1.91,0,0,1,.59.64,6,6,0,0,0,2.95,2.61,5,5,0,0,0,3.69.07,4.9,4.9,0,0,0,2.37-2.13,6,6,0,0,0,.75-3.34,1.29,1.29,0,0,1,.31-.91,1.22,1.22,0,0,1,.85-.42,1.29,1.29,0,0,1,.91.31,1.23,1.23,0,0,1,.42.86,8.41,8.41,0,0,1-1.13,4.82,7.4,7.4,0,0,1-3.55,3.13,7.37,7.37,0,0,1-2.62.5Z"/><path class="cls-10" d="M648.48,645.9,635,659.73l-13.51,13.82s-2.73,2.4-5,8.56-4.06,16.1-2.21,31.16c.52,4.24,1,8.48,1.54,12.72s1,8.49,1.39,12.74l3.15,31.64L623.47,802l29.19-3.54,29.19-3.54-4-39-4-38.94L685.48,707l11.59-10.06,11.84,9.8,11.85,9.79L716.88,755,713,793.44l29.28,2.15,29.28,2.14,4.32-29,4.32-29c.25-1.74.55-3.85.89-6.27s.72-5.16,1.12-8.14c.91-6.75,1.42-10.92,1.71-13.62s.37-3.91.42-4.73c.28-4.77.47-8.37.35-11.49a28.44,28.44,0,0,0-1.53-8.63,23.6,23.6,0,0,0-2.58-5c-1.27-2-3-4.39-5.4-7.54-5.67-7.46-11.51-14.27-15.93-19.22s-7.43-8-7.43-8l-26.32-.26Z"/><path class="cls-8" d="M321,669.93a1.23,1.23,0,0,1-.83-.32,1.2,1.2,0,0,1-.41-.8l-.67-6.54-.67-6.53a1.24,1.24,0,0,1,.28-.92,1.19,1.19,0,0,1,.84-.45,1.21,1.21,0,0,1,.91.27,1.26,1.26,0,0,1,.46.84l.67,6.54.67,6.53a1.28,1.28,0,0,1-.28.92,1.26,1.26,0,0,1-.84.46H321Z"/><path class="cls-2" d="M619.21,567.16c-.34-.28,1.89-3.45,4.31-6.66s5-6.46,5.42-7a101.55,101.55,0,0,1,7.88-8.32,106.85,106.85,0,0,1,8.74-7.41A90,90,0,0,1,693,520.1a86.4,86.4,0,0,1,49.47,10.74c8.76,5,15.9,11.86,22.3,19.45s12,15.92,17.77,23.92L766.3,586.33,750,598.46l.89,24.24.89,24.24-51.67-.52-51.67-.52.77-26.29.78-26.29-15.41-13.08Z"/><path class="cls-9" d="M741.06,645.6a1.55,1.55,0,0,1-.38,1,1.61,1.61,0,0,1-.95.53l-30,4.68-10.36,1.61h0l-10.93-1.71-29.34-4.58a1.61,1.61,0,0,1-1-.53,1.57,1.57,0,0,1-.37-1V586a1.55,1.55,0,0,1,1.83-1.53l28,4.87,11.6,2a1.18,1.18,0,0,0,.26,0,1.23,1.23,0,0,0,.27,0l11.58-2,28-4.87a1.56,1.56,0,0,1,1.28.34,1.54,1.54,0,0,1,.56,1.19V645.6Z"/><path class="cls-6" d="M782.55,574.21,766.3,586.33,750,598.46l3.77,8.41,3.78,8.41H740.42l-4.78-6.65L730.87,602s-.17-.28-.44-.65a6.84,6.84,0,0,0-1.08-1.18,2.37,2.37,0,0,0-.92-.47,2,2,0,0,0-1,0,1.75,1.75,0,0,0-1.23,1.06,5.28,5.28,0,0,0,.11,3.29l.36,1.36c.11.46.22.91.32,1.37l.83,4,.84,4a.52.52,0,0,1-.19.51.5.5,0,0,1-.54.06l-9.25-4.56-9.25-4.56-.71-.36-.71-.36-1-.53-.4-.2a6.77,6.77,0,0,0-1.46-.53,3.66,3.66,0,0,0-2.25.14,3.31,3.31,0,0,0-1.51,1.44,5,5,0,0,0-.48,1.21,3.62,3.62,0,0,0-2-.36,3.11,3.11,0,0,0-1.77.8,3.18,3.18,0,0,0-1,2.22,3.66,3.66,0,0,0,.87,2.48,4.34,4.34,0,0,0-.83,1,3.23,3.23,0,0,0-.36.79,4.3,4.3,0,0,0,.2,3,7.26,7.26,0,0,0,2.21,2.82l7.79,7.85,7.8,7.85a65.71,65.71,0,0,0,6.37,5.66,58.84,58.84,0,0,0,7.07,4.73,46.59,46.59,0,0,0,5.94,2.9,22.42,22.42,0,0,0,6,1.54L762,651.54l22.84,1.31A29.41,29.41,0,0,0,794,652a26.87,26.87,0,0,0,8.36-3.79,21.6,21.6,0,0,0,7.55-8.68c1.79-3.85,2.55-8.75,1.4-15a33.82,33.82,0,0,0-1.92-6.56,39,39,0,0,0-3.13-6.1L794.39,593Z"/><path class="cls-12" d="M699.23,653.65h0a1.21,1.21,0,0,1-.88-.37,1.22,1.22,0,0,1-.37-.88l.09-29.95.09-30a1.25,1.25,0,0,1,1.25-1.25h0a1.22,1.22,0,0,1,.88.37,1.24,1.24,0,0,1,.37.88l-.09,30-.09,29.95a1.25,1.25,0,0,1-1.25,1.24Z"/><path class="cls-10" d="M717.38,620a1.65,1.65,0,0,1-.38-.05,1.29,1.29,0,0,1-.35-.18l-8.25-5.87L700.14,608a1.25,1.25,0,0,1-.51-.81,1.27,1.27,0,0,1,.21-.94,1.25,1.25,0,0,1,1.75-.29l8.25,5.87,8.26,5.87a1.25,1.25,0,0,1,.51.81,1.27,1.27,0,0,1-.21.94,1.32,1.32,0,0,1-.46.39A1.21,1.21,0,0,1,717.38,620Z"/><path class="cls-10" d="M713,625.73a1.19,1.19,0,0,1-.76-.26l-8-6.18-8-6.18a1.25,1.25,0,0,1-.22-1.75,1.24,1.24,0,0,1,1.75-.23l8,6.18,8,6.18a1.25,1.25,0,0,1,.22,1.75,1.2,1.2,0,0,1-.44.37A1.3,1.3,0,0,1,713,625.73Z"/><path class="cls-6" d="M619.21,567.16l15.41,13.08L650,593.32q-2.1,5.05-4.19,10.09l-4.2,10.09h17.18l4.77-6.65,4.77-6.65s.17-.28.44-.65a6.88,6.88,0,0,1,1.08-1.18,2.39,2.39,0,0,1,.92-.48,2.15,2.15,0,0,1,1,0,1.74,1.74,0,0,1,1.23,1.05,5.31,5.31,0,0,1-.11,3.3l-.36,1.36c-.11.45-.22.91-.31,1.37l-.84,4-.83,4a.5.5,0,0,0,.18.51.52.52,0,0,0,.54.06l9.25-4.56,9.25-4.56.71-.36.71-.36,1-.53.4-.21a7.38,7.38,0,0,1,1.46-.52,3.65,3.65,0,0,1,2.25.14,3.31,3.31,0,0,1,1.51,1.44,5.2,5.2,0,0,1,.48,1.2,3.61,3.61,0,0,1,2-.35,3.16,3.16,0,0,1,1.77.79,3.23,3.23,0,0,1,1,2.23,3.7,3.7,0,0,1-.86,2.48,4.27,4.27,0,0,1,.82,1,3.57,3.57,0,0,1,.37.79,4.33,4.33,0,0,1-.21,3,7.19,7.19,0,0,1-2.2,2.83l-7.8,7.85-7.8,7.85a64.45,64.45,0,0,1-6.37,5.65A58.8,58.8,0,0,1,672,644a45.35,45.35,0,0,1-5.95,2.89,22.36,22.36,0,0,1-6,1.55l-22.84,1.31-22.84,1.31a29.74,29.74,0,0,1-9.17-.89,27,27,0,0,1-8.36-3.79,21.67,21.67,0,0,1-7.55-8.68c-1.78-3.85-2.54-8.75-1.4-15a34.85,34.85,0,0,1,1.92-6.57,39.35,39.35,0,0,1,3.13-6.09l13.11-21.46Z"/><path class="cls-10" d="M681.86,618.19a1.4,1.4,0,0,1-.57-.13,1.15,1.15,0,0,1-.45-.4,1.25,1.25,0,0,1-.22-.93,1.29,1.29,0,0,1,.51-.81l8.26-5.87,8.26-5.87a1.25,1.25,0,0,1,.93-.22,1.29,1.29,0,0,1,.81.51,1.26,1.26,0,0,1-.29,1.74l-8.26,5.88L682.58,618a1.26,1.26,0,0,1-.35.17A1.19,1.19,0,0,1,681.86,618.19Z"/><path class="cls-10" d="M686.23,624a1.13,1.13,0,0,1-.54-.13,1.2,1.2,0,0,1-.45-.36,1.25,1.25,0,0,1-.25-.92,1.21,1.21,0,0,1,.48-.83l8-6.18,8-6.18a1.27,1.27,0,0,1,.93-.25,1.26,1.26,0,0,1,.83.48,1.24,1.24,0,0,1,.25.92,1.29,1.29,0,0,1-.48.83l-8,6.18-8,6.18a1.14,1.14,0,0,1-.36.19A1.12,1.12,0,0,1,686.23,624Z"/><path class="cls-5" d="M675.13,522.67c-.6,5.57-1.55,14.34-2.32,21.84s-1.4,13.72-1.34,14.2a1,1,0,0,0,.16.48.41.41,0,0,0,.13.13.52.52,0,0,0,.19,0,1.08,1.08,0,0,0,.53-.16c.42-.23,4.44-5,9.42-10.9s10.92-13.12,15.18-18.27l-11-3.68Z"/><path class="cls-5" d="M697.08,530q6.18,7.47,12.37,15t12.37,14.95a.43.43,0,0,0,.48.12.41.41,0,0,0,.25-.42L721,540.18l-1.58-19.43-11.15,4.64Z"/><path class="cls-5" d="M698.62,557a2.4,2.4,0,0,1-.69,1.71,2.4,2.4,0,0,1-3.4,0,2.42,2.42,0,0,1-.73-1.69,2.41,2.41,0,0,1,2.37-2.44,2.41,2.41,0,0,1,2.45,2.37Z"/><path class="cls-5" d="M698.62,581.67a2.4,2.4,0,0,1-.69,1.71,2.4,2.4,0,0,1-3.4,0,2.42,2.42,0,0,1-.73-1.7,2.41,2.41,0,0,1,4.09-1.76A2.42,2.42,0,0,1,698.62,581.67Z"/><path class="cls-10" d="M641.64,614.75H626.92a1.25,1.25,0,1,1,0-2.5h14.72a1.25,1.25,0,1,1,0,2.5Z"/><path class="cls-10" d="M770.25,616.53H757.59a1.25,1.25,0,0,1-.89-2.13,1.25,1.25,0,0,1,.89-.37h12.66a1.25,1.25,0,0,1,.89.37,1.25,1.25,0,0,1-.89,2.13Z"/><path class="cls-6" d="M524.25,547,526,567l1.7,20.09a104.21,104.21,0,0,0,1.56,11.27,97.17,97.17,0,0,0,2.8,11,50.1,50.1,0,0,0,4.16,10c1.59,2.67,3.36,4.36,5.26,4.12a13.93,13.93,0,0,0,4,5.21,8.34,8.34,0,0,0,5.26,1.88,7.38,7.38,0,0,0,1.52-.2,8.35,8.35,0,0,0,2-.78,13.55,13.55,0,0,0,2.08,2.1,10.85,10.85,0,0,0,3.3,1.81,6.76,6.76,0,0,0,1.86.37,3.23,3.23,0,0,0,1-.09,4.32,4.32,0,0,0,1.88-1,6,6,0,0,0,.93-1c.89-1.18,1.14-2.78.76-5.68s-1.36-7.07-2.93-13.43c-.13-.53-.36-1.45-.67-2.66s-.71-2.74-1.18-4.47c-.16-.57-.27-1-.36-1.27s-.14-.51-.19-.71a49.4,49.4,0,0,1-1.13-6.12c-.23-1.86-.33-3.53-.37-5,0-1.84-.07-3.69,0-5.53a36.15,36.15,0,0,1,.6-5.5,14.08,14.08,0,0,1,.91-3.15,4.34,4.34,0,0,1,2.16-2.35,3.88,3.88,0,0,1,3.15.13,5.68,5.68,0,0,1,2.42,2.12,11.25,11.25,0,0,1,1.28,3.26c.28,1.16.47,2.34.69,3.46.33,1.66.7,3.31,1.14,4.94a39.31,39.31,0,0,0,1.63,4.8c1.45,3.46,2.84,5.3,4,6.28a3.83,3.83,0,0,0,2.29,1.14,4,4,0,0,0,.77,0,3.72,3.72,0,0,0,1.21-.36,5.26,5.26,0,0,0,2.41-3.54,17.91,17.91,0,0,0,.28-6.34c-.11-1-.23-2-.34-3s-.21-2-.3-3l-1.82-22.21-1.81-22.21L552,544.17Z"/><path class="cls-10" d="M554.2,630.86a1.25,1.25,0,0,1-.62-.16,1.16,1.16,0,0,1-.46-.47c-2.63-4.6-5.13-12.31-7-19s-3.08-12.31-3.18-12.77a1.27,1.27,0,0,1,.17-.94,1.22,1.22,0,0,1,.79-.54,1.18,1.18,0,0,1,.94.17,1.22,1.22,0,0,1,.54.78c0,.11,1.23,5.66,3.07,12.29s4.29,14.33,6.83,18.76a1.25,1.25,0,0,1-.47,1.71.94.94,0,0,1-.3.12A1.17,1.17,0,0,1,554.2,630.86Z"/><path class="cls-10" d="M541.43,624.76a1.2,1.2,0,0,1-.71-.23,1.24,1.24,0,0,1-.47-.6c-.66-1.81-1.29-3.65-1.9-5.5s-1.17-3.72-1.7-5.58q-1-3.47-1.84-7c-.56-2.35-1.07-4.72-1.52-7.07a1.27,1.27,0,0,1,.19-.94,1.25,1.25,0,0,1,.8-.53,1.28,1.28,0,0,1,.94.2,1.29,1.29,0,0,1,.53.79q.66,3.5,1.5,7t1.8,6.9q.8,2.75,1.68,5.48c.59,1.83,1.22,3.64,1.87,5.43a1.2,1.2,0,0,1,0,.95,1.25,1.25,0,0,1-.7.65,1.8,1.8,0,0,1-.22.06Z"/><path class="cls-2" d="M623.47,802l1.36,12.4,1.35,12.4a12.47,12.47,0,0,1-4.53,11l-6.27,5.09L609.12,848a3.21,3.21,0,0,0,2.53,5.65l32.34-5.2,32.34-5.2a10.71,10.71,0,0,0,9-11.57l-1.72-18.38-1.73-18.39-29.19,3.54Z"/><path class="cls-2" d="M771.56,797.73q-.78,7.42-1.55,14.84l-1.56,14.84a10.51,10.51,0,0,0,.89,5.45,10.64,10.64,0,0,0,3.54,4.26l6.68,4.67,6.68,4.67a2.7,2.7,0,0,1-1.89,4.89l-33.51-4.27-33.52-4.26a9.21,9.21,0,0,1-8-10q.93-9.84,1.84-19.69t1.84-19.7l29.28,2.15Z"/><path class="cls-5" d="M256.13,562.76l-1.66-.48-1.67-.48c.79-4.23,1.7-8.63,2.61-13s1.81-8.79,2.61-13q4.23-19.57,8.47-39.16L275,457.44a59.71,59.71,0,0,0-13.27-.46A54.08,54.08,0,0,0,243,461.85c-13.35,6.24-21.4,16.8-26.17,26.2a70.25,70.25,0,0,0-6.53,19.19L208,521.72l-2.26,14.49q-1.08,6.87-2.23,13.74c-.76,4.57-1.54,9.15-2.31,13.72-.89,5.3-1.79,14.29.3,22.63s7.16,16,18.21,18.76l27.07,7.52,27.07,7.51,4-25.22,4-25.23q-6.45-1.6-12.86-3.32T256.13,562.76Z"/><path class="cls-6" d="M311.41,436.38a27.21,27.21,0,1,1-8-19.25A27.1,27.1,0,0,1,311.41,436.38Z"/><path class="cls-3" d="M275.39,437.12a1.83,1.83,0,0,1-.78,1.18,1.84,1.84,0,0,1-2.85-1.88,1.85,1.85,0,0,1,3.63.7Z"/><path class="cls-3" d="M288.9,438.37a1.85,1.85,0,0,1-.78,1.18,1.86,1.86,0,0,1-2.56-.49,1.87,1.87,0,0,1-.29-1.39,1.85,1.85,0,0,1,.78-1.18,1.86,1.86,0,0,1,2.57.5A1.83,1.83,0,0,1,288.9,438.37Z"/><path class="cls-10" d="M280,449.89h0a10.31,10.31,0,0,1-5.19-1.44,10.76,10.76,0,0,1-2.52-2,1.22,1.22,0,0,1-.32-.9,1.24,1.24,0,0,1,.42-.86,1.22,1.22,0,0,1,.9-.32,1.24,1.24,0,0,1,.86.42,8.55,8.55,0,0,0,1.92,1.54,7.82,7.82,0,0,0,3.94,1.1,8,8,0,0,0,3.8-1,8.23,8.23,0,0,0,1.9-1.41,1.26,1.26,0,0,1,.88-.38,1.28,1.28,0,0,1,.89.36,1.26,1.26,0,0,1,.38.88,1.28,1.28,0,0,1-.36.89,10.71,10.71,0,0,1-2.47,1.85A10.26,10.26,0,0,1,280,449.89Z"/><path class="cls-10" d="M276.48,422.91a14.79,14.79,0,0,0,6.46,5.22,15.3,15.3,0,0,0,8.31,1,12.65,12.65,0,0,0,6.45,7.38,10.59,10.59,0,0,0,8.74.41,9.42,9.42,0,0,0,2.67-1.75,10.78,10.78,0,0,0,2-2.59,27.21,27.21,0,0,0-32.09-22.94,27.7,27.7,0,0,0-4.81,1.39,15.18,15.18,0,0,0-.13,6.15A14.7,14.7,0,0,0,276.48,422.91Z"/><path class="cls-6" d="M346.08,609.94a4.14,4.14,0,0,0-1.46-2,4.81,4.81,0,0,0-2.38-.94,8.9,8.9,0,0,0,.47-4.26c-.38-2.11-2-4.17-6.93-4-1.56.15-3.21.27-4.95.34s-3.55.09-5.43,0a84.52,84.52,0,0,1-8.85-.68c-2.74-.36-5.27-.82-7.56-1.33a7.59,7.59,0,0,1-3.33-1.2,4.06,4.06,0,0,1-1.72-2.28,3.55,3.55,0,0,1-.1-.7,3.21,3.21,0,0,1,.18-1.28,4.59,4.59,0,0,1,3.09-2.43,15.18,15.18,0,0,1,5.88-.53l6.3.09,6.3.09a5.68,5.68,0,0,0,1.23-.1,4.38,4.38,0,0,0,1.16-.38,5.24,5.24,0,0,0,1.8-1.5,4.73,4.73,0,0,0,.13-5.52,5.19,5.19,0,0,0-2.91-2.14q-11.38-2-22.69-4.46t-22.52-5.19l-4,25.23-4,25.22,4.85,1.35,4.84,1.35c1.7.47,3.39,1,5.08,1.45l5.06,1.52c2.17.65,4.58,1.27,7.21,1.8a81,81,0,0,0,8.55,1.22,79,79,0,0,0,12.66.07,81,81,0,0,0,9.89-1.38,29.12,29.12,0,0,0,5-1.5,26,26,0,0,0,3.38-1.67,19.59,19.59,0,0,0,3-2,4.42,4.42,0,0,0,1.54-2.41,4.82,4.82,0,0,0-.23-2.67,7.69,7.69,0,0,0-.92-1.76,5,5,0,0,0,2.27-2.44A4.29,4.29,0,0,0,346.08,609.94Z"/><path class="cls-10" d="M318.93,610.41q-3,0-6.13-.18c-2.06-.13-4.12-.31-6.2-.55a1.21,1.21,0,0,1-.83-.47,1.25,1.25,0,0,1,.2-1.75,1.24,1.24,0,0,1,.92-.26c3.3.38,6.59.61,9.83.68s6.46,0,9.61-.25c2.69-.21,6-.58,9-.94s5.52-.7,6.68-.86h.12a1.25,1.25,0,0,1,.92.27,1.2,1.2,0,0,1,.46.83,1.24,1.24,0,0,1-1.09,1.38c-1.2.17-3.81.52-6.8.88s-6.35.74-9.06,1c-1.25.09-2.51.17-3.78.21S320.21,610.41,318.93,610.41Z"/><path class="cls-10" d="M315.43,619c-1.36,0-2.71,0-4.06,0s-2.69-.08-4-.14a1.24,1.24,0,0,1-.86-.41,1.22,1.22,0,0,1,.09-1.76,1.23,1.23,0,0,1,.89-.33c3.59.17,7.21.22,10.82.16s7.22-.23,10.79-.51c2.41-.19,4.82-.44,7.23-.73s4.81-.64,7.18-1a1.28,1.28,0,0,1,.94.22,1.26,1.26,0,0,1,.5.81,1.25,1.25,0,0,1-1,1.44c-2.41.4-4.85.75-7.29,1s-4.89.55-7.33.74q-3.43.27-6.9.41T315.43,619Z"/><path class="cls-10" d="M323.48,626.91c-2.5,0-5-.06-7.48-.2s-5-.32-7.47-.58a1.26,1.26,0,0,1-.84-.46,1.23,1.23,0,0,1-.27-.92,1.21,1.21,0,0,1,.45-.84,1.23,1.23,0,0,1,.92-.27c4,.42,8,.67,12,.75s8,0,12-.29l2.49-.2,2.47-.23a1.22,1.22,0,0,1,.91.27,1.26,1.26,0,0,1,.46.84,1.25,1.25,0,0,1-1.12,1.38l-2.51.23c-.84.08-1.69.14-2.53.2-1.58.11-3.16.19-4.75.24S325.07,626.91,323.48,626.91Z"/><path class="cls-6" d="M727.36,499.16a31,31,0,1,1-9.09-21.94A30.92,30.92,0,0,1,727.36,499.16Z"/><path class="cls-5" d="M691.31,497.48a8.71,8.71,0,1,1-2.55-6.15A8.67,8.67,0,0,1,691.31,497.48Z"/><path class="cls-10" d="M682.61,507.44a10,10,0,1,1,7-2.92A9.93,9.93,0,0,1,682.61,507.44Zm0-17.41a7.44,7.44,0,1,0,5.27,2.18A7.42,7.42,0,0,0,682.61,490Z"/><path class="cls-5" d="M716.48,497.48a8.71,8.71,0,1,1-2.55-6.15A8.71,8.71,0,0,1,716.48,497.48Z"/><path class="cls-10" d="M707.77,507.44a10,10,0,1,1,7-2.92A9.95,9.95,0,0,1,707.77,507.44Zm0-17.41a7.46,7.46,0,1,0,5.27,2.18A7.42,7.42,0,0,0,707.77,490Z"/><path class="cls-10" d="M698.73,498.73h-7.42a1.25,1.25,0,0,1-1.25-1.25,1.24,1.24,0,0,1,.37-.88,1.22,1.22,0,0,1,.88-.37h7.42a1.22,1.22,0,0,1,.88.37,1.24,1.24,0,0,1,0,1.77A1.26,1.26,0,0,1,698.73,498.73Z"/><path class="cls-9" d="M595.52,296.23a13,13,0,1,1-3.8-9.16A12.88,12.88,0,0,1,595.52,296.23Z"/><path class="cls-10" d="M695.08,516.69A8.65,8.65,0,0,1,687.4,512a1.25,1.25,0,0,1,.52-1.69,1.24,1.24,0,0,1,1-.08,1.21,1.21,0,0,1,.73.61,6.1,6.1,0,0,0,2.3,2.42,6.17,6.17,0,0,0,8.65-2.42,1.21,1.21,0,0,1,.73-.61,1.24,1.24,0,0,1,1,.08,1.25,1.25,0,0,1,.52,1.69,8.69,8.69,0,0,1-7.62,4.65h-.07Z"/><path class="cls-10" d="M724.66,463.51c.13-.52.23-1.05.31-1.59a12.55,12.55,0,0,0,.11-1.64,13.16,13.16,0,0,0-13.17-13.16,12.44,12.44,0,0,0-2.21.19,13.5,13.5,0,0,0-2.1.55,15.63,15.63,0,0,0-5.39-3.88,17.71,17.71,0,0,0-15.15.55,15,15,0,0,0-5.69,5.23,10.67,10.67,0,0,0-2.45-1,10.92,10.92,0,0,0-13.6,10.57,10.62,10.62,0,0,0,.57,3.45,11.1,11.1,0,0,0,1.55,3,10.89,10.89,0,0,0-1.55,3,10.62,10.62,0,0,0-.57,3.45,10.89,10.89,0,0,0,18,8.27,15.86,15.86,0,0,0,5.26,3.51,17.59,17.59,0,0,0,12.48.32,16.18,16.18,0,0,0,4.84-2.68,13.15,13.15,0,0,0,20.74-14.48A13.26,13.26,0,0,0,724.66,463.51Z"/><path class="cls-4" d="M228.22,503a89.9,89.9,0,0,1,27.32,4.5c13.49,4.7,26.61,14.32,25.18,34H297.9s2.41-10,10.12-16.64,20.75-10.07,42,3.06a39.62,39.62,0,0,0-6.43-10.66A40.86,40.86,0,0,0,320,503s-.45-5.65,2.67-13.4,9.83-17.61,24.12-26a49.81,49.81,0,0,0-15.1.12c-8.48,1.32-18.84,5.18-26.34,15.32,0,0,.65-11.43,2.06-24.08s3.61-26.54,6.7-31.44c0,0-6.36,1.08-13.61,8.2S285.13,452,281.58,476.09A49.32,49.32,0,0,0,271,468.58c-6.46-3.4-15.22-6.09-24.41-3.28a101.3,101.3,0,0,1,11,9.41c5.76,5.67,12,13.26,14,21a75.89,75.89,0,0,0-16.3-1.73C246.18,494,235.35,495.8,228.22,503Z"/><path class="cls-10" d="M556.3,293.4a29.64,29.64,0,1,1-8.68-21A29.54,29.54,0,0,1,556.3,293.4Z"/><path class="cls-10" d="M586.33,270.63a19.8,19.8,0,1,1-5.8-14A19.74,19.74,0,0,1,586.33,270.63Z"/><path class="cls-6" d="M511.71,321.94a28.54,28.54,0,1,1-8.36-20.18A28.48,28.48,0,0,1,511.71,321.94Z"/><path class="cls-10" d="M484.9,302.2a33.28,33.28,0,0,0,2.89,13.1c3,6.82,9.33,14.17,22.23,16.32a27.32,27.32,0,0,0,1.25-4.7,28.54,28.54,0,0,0-28.1-33.52,28.38,28.38,0,0,0-14.47,3.94,19.4,19.4,0,0,0,6.35,4.67A12.65,12.65,0,0,0,484.9,302.2Z"/><path class="cls-3" d="M468.19,312.37a1.93,1.93,0,0,1-1.88,2,2,2,0,0,1-1.38-.53,1.93,1.93,0,1,1,3.26-1.45Z"/><path class="cls-3" d="M480.56,319.18a1.93,1.93,0,0,1-.53,1.38,1.91,1.91,0,0,1-1.35.6,1.85,1.85,0,0,1-1.38-.53,1.92,1.92,0,0,1-.08-2.73,2,2,0,0,1,1.35-.6,1.92,1.92,0,0,1,1.38.53A2,2,0,0,1,480.56,319.18Z"/><path class="cls-10" d="M470.2,329.4a9.16,9.16,0,0,1-4.25-1,9.12,9.12,0,0,1-2.9-2.41,9.72,9.72,0,0,1-1.36-2.29,1.21,1.21,0,0,1,0-1,1.26,1.26,0,0,1,.67-.69,1.26,1.26,0,0,1,1.64.67,7.53,7.53,0,0,0,1,1.69,6.84,6.84,0,0,0,2.13,1.77,6.72,6.72,0,0,0,4,.7,8.2,8.2,0,0,0,2.27-.62,1.25,1.25,0,0,1,1.7,1.57,1.27,1.27,0,0,1-.65.7,10.62,10.62,0,0,1-4.25.9Z"/><path class="cls-12" d="M429.61,855.3a1.2,1.2,0,0,1-.59-.15,1.15,1.15,0,0,1-.46-.42,1.25,1.25,0,0,1,.36-1.73L440,845.73,451,838.46a12,12,0,0,0,2.48-2.14,10.55,10.55,0,0,0,1.71-2.62,12.34,12.34,0,0,0,1-4.09,52.1,52.1,0,0,0,.07-5.48v-1.21c0-1,0-2,0-2.94s0-2,0-2.94v-1.46c0-.49,0-1,0-1.47v-25l-4.12-121.07L448.1,547a1.25,1.25,0,0,1,1.21-1.29,1.25,1.25,0,0,1,.9.34,1.22,1.22,0,0,1,.39.86L454.72,668l4.12,121.09v25c0,.49,0,1,0,1.47v1.47c0,1,0,2,0,2.92s0,1.95,0,2.92v1.21a53.78,53.78,0,0,1-.09,5.83,14.38,14.38,0,0,1-1.23,4.75,13.39,13.39,0,0,1-2.11,3.26,14.51,14.51,0,0,1-3,2.61l-11.07,7.27-11.06,7.27a1.44,1.44,0,0,1-.33.16A1.48,1.48,0,0,1,429.61,855.3Z"/><path class="cls-4" d="M859.67,440.06V301.41a22,22,0,0,0-5.61.8,18.85,18.85,0,0,0-5.12,2.29c-5,3.21-8.34,8.82-9.35,15.22a27.66,27.66,0,0,0,4.6,19.89.22.22,0,0,1,0,.3.23.23,0,0,1-.3,0,19.63,19.63,0,0,0-14.68-3.54,16.37,16.37,0,0,0-13.59,21.71A19.61,19.61,0,0,0,826,370.26v0h0a24.49,24.49,0,0,0-18.43,3.49c-5,3.28-8.38,8.22-9.09,13.45a19.17,19.17,0,0,0,3.72,13.51A24.2,24.2,0,0,0,815,409.85l-5.08.14-5.09.13a25.38,25.38,0,0,0-24.69,26.05h0a25.4,25.4,0,0,0,3.55,12.28h67.59a8.4,8.4,0,0,0,8.39-8.39Z"/><path class="cls-8" d="M850.12,344.94a1.49,1.49,0,0,1-.36-.05,1.62,1.62,0,0,1-.35-.17l-3.6-2.51-3.61-2.51a1.26,1.26,0,0,1-.52-.8,1.28,1.28,0,0,1,.21-.94,1.21,1.21,0,0,1,.8-.51,1.23,1.23,0,0,1,.94.2l3.6,2.51,3.61,2.51a1.26,1.26,0,0,1,.52.8,1.28,1.28,0,0,1-.21.94,1.43,1.43,0,0,1-.45.4A1.29,1.29,0,0,1,850.12,344.94Z"/><path class="cls-8" d="M829.52,411.1h-18.9a1.25,1.25,0,0,1-.89-2.13,1.25,1.25,0,0,1,.89-.37h18.9a1.21,1.21,0,0,1,.88.37,1.25,1.25,0,0,1-.88,2.13Z"/><path class="cls-10" d="M281.79,570.89h-.16l-.17,0-15.06-4.07-15.07-4.07,4.58-22.13,4.57-22.13a1.25,1.25,0,0,1,2.45.51l-4.33,21-4.34,21,13.93,3.77,13.93,3.76a1.24,1.24,0,0,1,.75.59,1.22,1.22,0,0,1,.13.94,1.23,1.23,0,0,1-.46.67A1.18,1.18,0,0,1,281.79,570.89Z"/><path class="cls-8" d="M661.26,279H639.1a1.25,1.25,0,0,1-1.25-1.25,1.22,1.22,0,0,1,.37-.88,1.21,1.21,0,0,1,.88-.37h22.16a1.24,1.24,0,0,1,.88.37,1.22,1.22,0,0,1,.37.88,1.25,1.25,0,0,1-.37.89A1.27,1.27,0,0,1,661.26,279Z"/><path class="cls-8" d="M623.82,215.35a1.32,1.32,0,0,1-.39-.06,1.26,1.26,0,0,1-.36-.19,1.21,1.21,0,0,1-.48-.82,1.22,1.22,0,0,1,.24-.93l1.71-2.28,1.72-2.28a1.24,1.24,0,0,1,1.75-.25,1.27,1.27,0,0,1,.49.82,1.31,1.31,0,0,1-.24.93l-1.72,2.28-1.72,2.29a1.24,1.24,0,0,1-.45.37A1.3,1.3,0,0,1,623.82,215.35Z"/><path class="cls-9" d="M226.85,246.7a45.2,45.2,0,0,0-71.92-36.5v73a45.22,45.22,0,0,0,71.92-36.49Z"/><path class="cls-8" d="M213.83,251.69a14,14,0,0,1-8.28-2.84,15.4,15.4,0,0,1-5.42-7.39,17.76,17.76,0,0,1-9.63,1.85,14.71,14.71,0,0,1-8.47-3.6,14.37,14.37,0,0,1-4.17-6.74,17.63,17.63,0,0,1-.74-4.95,1.21,1.21,0,0,1,.37-.88,1.22,1.22,0,0,1,.88-.37h0a1.24,1.24,0,0,1,.88.37,1.28,1.28,0,0,1,.36.89,15.38,15.38,0,0,0,.61,4.18,12,12,0,0,0,3.46,5.64,12.29,12.29,0,0,0,7.34,3A15.37,15.37,0,0,0,199.4,239a2.22,2.22,0,0,1,.87-.24,2.17,2.17,0,0,1,.9.16,2,2,0,0,1,.75.53,1.94,1.94,0,0,1,.45.79,13,13,0,0,0,5.37,7.09A10.88,10.88,0,0,0,216,249a10.64,10.64,0,0,0,5.89-3.73,12.8,12.8,0,0,0,2.82-6.89,1.25,1.25,0,0,1,1.37-1.12,1.32,1.32,0,0,1,.85.45,1.25,1.25,0,0,1,.27.92,15.35,15.35,0,0,1-3.44,8.29,13.25,13.25,0,0,1-7.22,4.53,13.88,13.88,0,0,1-2.66.29Z"/><path class="cls-8" d="M246.1,291.25a1.38,1.38,0,0,1-.49-.1,1.35,1.35,0,0,1-.42-.3L242.48,288l-2.72-2.88a1.28,1.28,0,0,1-.34-.9,1.25,1.25,0,0,1,2.16-.82l2.72,2.89,2.71,2.88a1.23,1.23,0,0,1,.34.89,1.27,1.27,0,0,1-.39.88,1.35,1.35,0,0,1-.86.34Z"/><path class="cls-8" d="M284.62,336.92h-6.23a1.25,1.25,0,0,1-1.25-1.25,1.22,1.22,0,0,1,.37-.88,1.21,1.21,0,0,1,.88-.37h6.23a1.25,1.25,0,0,1,.89.37,1.22,1.22,0,0,1,.37.88,1.25,1.25,0,0,1-.37.89A1.28,1.28,0,0,1,284.62,336.92Z"/><path class="cls-14" d="M307.61,328.28v0l-.29.08-.3.08.3-.06Z"/><polygon class="cls-3" points="273.59 374.05 265.84 374.05 258.1 374.05 266.15 384.24 274.2 394.42 273.89 384.24 273.59 374.05"/><path class="cls-2" d="M278.5,306.21a9.7,9.7,0,1,1-2.84-6.85A9.66,9.66,0,0,1,278.5,306.21Z"/><path class="cls-9" d="M647.94,241.4a13,13,0,1,1-3.8-9.16A12.88,12.88,0,0,1,647.94,241.4Z"/><polygon class="cls-3" points="630.77 326.06 619.07 326.06 607.37 326.06 619.45 338.5 631.52 350.95 631.15 338.5 630.77 326.06"/><path class="cls-2" d="M629.42,421.84a7.62,7.62,0,0,1-3.08,5.94,12.54,12.54,0,0,1-14.89,0,7.26,7.26,0,0,1,0-11.87,12.5,12.5,0,0,1,14.89,0A7.61,7.61,0,0,1,629.42,421.84Z"/><path class="cls-2" d="M605.37,404.06a4.26,4.26,0,0,1-1.74,3.34,7,7,0,0,1-8.38,0,4.09,4.09,0,0,1,0-6.68,7.05,7.05,0,0,1,8.38,0A4.29,4.29,0,0,1,605.37,404.06Z"/><path class="cls-10" d="M326.24,558.85H267.73a1.25,1.25,0,0,1-1.25-1.25,1.23,1.23,0,0,1,1.25-1.25h58.51a1.25,1.25,0,0,1,1.25,1.25,1.26,1.26,0,0,1-1.25,1.25Z"/><path class="cls-9" d="M846,381.71a13,13,0,1,1-3.8-9.16A12.9,12.9,0,0,1,846,381.71Z"/><path class="cls-8" d="M283.47,481.16a1.25,1.25,0,0,1-.65-.18,1.19,1.19,0,0,1-.47-.52l-1-1.91-.94-1.91A1.26,1.26,0,0,1,282,474.9a1.27,1.27,0,0,1,.72.63l.95,1.92.94,1.91a1.21,1.21,0,0,1,.06.95,1.24,1.24,0,0,1-.63.72.88.88,0,0,1-.27.1A1.33,1.33,0,0,1,283.47,481.16Z"/><path class="cls-8" d="M310.13,504.48a1.25,1.25,0,0,1-.79-.28,1.31,1.31,0,0,1-.44-.71,1.26,1.26,0,0,1,.18-.94,1.24,1.24,0,0,1,.79-.54,35.22,35.22,0,0,1,3.8-.55,21,21,0,0,1,6.66.28,1.27,1.27,0,0,1,.76.57,1.3,1.3,0,0,1,.14.95,1.27,1.27,0,0,1-.58.77,1.22,1.22,0,0,1-.94.13,18.54,18.54,0,0,0-6-.19c-1.89.18-3.34.48-3.37.48l-.13,0Z"/><path class="cls-3" d="M280.24,532.15l8.83,4.64,8.83,4.63H280.72s.09-1.49.07-3.4A28.21,28.21,0,0,0,280.24,532.15Z"/></svg>