<svg xmlns="http://www.w3.org/2000/svg" xmlns:xlink="http://www.w3.org/1999/xlink" version="1.1" width="256" height="256" viewBox="0 0 256 256" xml:space="preserve">

<defs>
</defs>
<g style="stroke: none; stroke-width: 0; stroke-dasharray: none; stroke-linecap: butt; stroke-linejoin: miter; stroke-miterlimit: 10; fill: none; fill-rule: nonzero; opacity: 1;" transform="translate(1.4065934065934016 1.4065934065934016) scale(2.81 2.81)" >
	<circle cx="45" cy="45" r="45" style="stroke: none; stroke-width: 1; stroke-dasharray: none; stroke-linecap: butt; stroke-linejoin: miter; stroke-miterlimit: 10; fill: rgb(228,145,112); fill-rule: nonzero; opacity: 1;" transform="  matrix(1 0 0 1 0 0) "/>
	<circle cx="50.5" cy="39.5" r="2.5" style="stroke: none; stroke-width: 1; stroke-dasharray: none; stroke-linecap: butt; stroke-linejoin: miter; stroke-miterlimit: 10; fill: rgb(255,255,255); fill-rule: nonzero; opacity: 1;" transform="  matrix(1 0 0 1 0 0) "/>
	<path d="M 40.474 73.5 c -0.229 0 -0.46 -0.039 -0.683 -0.12 c -0.73 -0.266 -1.241 -0.93 -1.309 -1.704 L 37.8 63.957 L 26.043 52.2 l -7.719 -0.683 c -0.774 -0.068 -1.438 -0.579 -1.704 -1.309 c -0.265 -0.73 -0.083 -1.549 0.466 -2.098 l 8.687 -8.687 c 1.615 -1.617 3.846 -2.426 6.125 -2.227 l 4.861 0.43 l 6.918 -6.918 c 4.127 -4.127 9.581 -6.86 15.357 -7.695 l 3.231 -0.467 c 1.438 -0.209 2.86 0.263 3.891 1.293 c 1.031 1.031 1.503 2.45 1.295 3.893 l -0.467 3.232 c -0.836 5.776 -3.568 11.23 -7.694 15.357 l -6.919 6.919 l 0.43 4.86 c 0.201 2.277 -0.61 4.51 -2.227 6.126 l -8.687 8.687 C 41.507 73.296 40.995 73.5 40.474 73.5 z M 22.944 47.91 l 4.176 0.369 c 0.468 0.041 0.906 0.246 1.238 0.578 l 12.785 12.785 c 0.332 0.332 0.537 0.771 0.578 1.238 l 0.369 4.176 l 5.658 -5.657 c 0.776 -0.777 1.167 -1.851 1.07 -2.946 l -0.512 -5.79 c -0.052 -0.589 0.159 -1.172 0.578 -1.59 l 7.579 -7.579 c 3.52 -3.521 5.851 -8.174 6.563 -13.101 l 0.467 -3.231 c 0.036 -0.25 -0.087 -0.415 -0.164 -0.492 c -0.076 -0.077 -0.241 -0.201 -0.49 -0.163 l 0 0 l -3.231 0.467 c -4.928 0.712 -9.581 3.043 -13.102 6.564 l -7.579 7.579 c -0.418 0.418 -0.998 0.633 -1.59 0.578 l -5.791 -0.512 c -1.09 -0.097 -2.168 0.294 -2.945 1.07 L 22.944 47.91 z M 62.553 24.527 h 0.01 H 62.553 z" style="stroke: none; stroke-width: 1; stroke-dasharray: none; stroke-linecap: butt; stroke-linejoin: miter; stroke-miterlimit: 10; fill: rgb(255,255,255); fill-rule: nonzero; opacity: 1;" transform=" matrix(1 0 0 1 0 0) " stroke-linecap="round" />
</g>
</svg>