<svg xmlns="http://www.w3.org/2000/svg" xmlns:xlink="http://www.w3.org/1999/xlink" version="1.1" width="256" height="256" viewBox="0 0 256 256" xml:space="preserve">

<defs>
</defs>
<g style="stroke: none; stroke-width: 0; stroke-dasharray: none; stroke-linecap: butt; stroke-linejoin: miter; stroke-miterlimit: 10; fill: none; fill-rule: nonzero; opacity: 1;" transform="translate(1.4065934065934016 1.4065934065934016) scale(2.81 2.81)" >
	<circle cx="45" cy="45" r="45" style="stroke: none; stroke-width: 1; stroke-dasharray: none; stroke-linecap: butt; stroke-linejoin: miter; stroke-miterlimit: 10; fill: rgb(228,145,112); fill-rule: nonzero; opacity: 1;" transform="  matrix(1 0 0 1 0 0) "/>
	<path d="M 71 45 c 0 -14.336 -11.663 -26 -26 -26 c -14.336 0 -26 11.664 -26 26 c 0 14.337 11.664 26 26 26 c 2.319 0 4.619 -0.306 6.838 -0.909 c 1.066 -0.289 1.695 -1.389 1.405 -2.454 c -0.289 -1.066 -1.386 -1.694 -2.454 -1.405 C 48.912 66.741 46.965 67 45 67 c -12.131 0 -22 -9.869 -22 -22 s 9.869 -22 22 -22 s 22 9.869 22 22 c 0 3.36 -0.74 6.58 -2.192 9.576 c -1.269 1.865 -3.829 2.127 -5.694 1.571 c -0.682 -0.203 -2.906 -1.036 -2.906 -3.213 v -8.577 v -1.744 V 35.49 c 0 -1.104 -0.896 -2 -2 -2 c -0.826 0 -1.534 0.501 -1.839 1.215 c -1.722 -1.365 -3.893 -2.187 -6.255 -2.187 h -2.226 c -5.566 0 -10.095 4.528 -10.095 10.095 v 2.226 c 0 5.566 4.528 10.095 10.095 10.095 h 8.633 c 0.709 2.352 2.653 4.211 5.451 5.046 c 0.972 0.29 1.955 0.43 2.918 0.43 c 2.894 0 5.583 -1.268 7.149 -3.485 c 0.047 -0.054 0.089 -0.112 0.131 -0.172 c 0.008 -0.012 0.019 -0.023 0.027 -0.035 c 0.009 -0.014 0.014 -0.03 0.023 -0.044 c 0.034 -0.055 0.073 -0.104 0.102 -0.163 C 70.099 52.912 71 49.04 71 45 z M 37.792 44.839 v -2.226 c 0 -3.361 2.734 -6.095 6.095 -6.095 h 2.226 c 3.36 0 6.095 2.734 6.095 6.095 v 1.744 v 6.577 h -8.321 C 40.526 50.934 37.792 48.199 37.792 44.839 z" style="stroke: none; stroke-width: 1; stroke-dasharray: none; stroke-linecap: butt; stroke-linejoin: miter; stroke-miterlimit: 10; fill: rgb(255,255,255); fill-rule: nonzero; opacity: 1;" transform=" matrix(1 0 0 1 0 0) " stroke-linecap="round" />
</g>
</svg>